<?xml version="1.0" encoding="UTF-8" standalone="no"?>
<!-- Created with Inkscape (http://www.inkscape.org/) -->

<svg
   xmlns:dc="http://purl.org/dc/elements/1.1/"
   xmlns:cc="http://creativecommons.org/ns#"
   xmlns:rdf="http://www.w3.org/1999/02/22-rdf-syntax-ns#"
   xmlns:svg="http://www.w3.org/2000/svg"
   xmlns="http://www.w3.org/2000/svg"
   xmlns:sodipodi="http://sodipodi.sourceforge.net/DTD/sodipodi-0.dtd"
   xmlns:inkscape="http://www.inkscape.org/namespaces/inkscape"
   width="268.4248"
   height="211"
   id="svg2"
   version="1.1"
   inkscape:version="0.48.2 r9819"
   sodipodi:docname="New document 1">
  <defs
     id="defs4">
    <inkscape:path-effect
       effect="ruler"
       id="path-effect3007"
       is_visible="true"
       unit="px"
       mark_distance="5"
       mark_length="6"
       minor_mark_length="4"
       major_mark_steps="10"
       shift="0"
       offset="0"
       mark_dir="left"
       border_marks="both" />
    <inkscape:path-effect
       effect="ruler"
       id="path-effect3003"
       is_visible="true"
       unit="px"
       mark_distance="5"
       mark_length="10"
       minor_mark_length="5"
       major_mark_steps="5"
       shift="0"
       offset="1"
       mark_dir="right"
       border_marks="both" />
  </defs>
  <sodipodi:namedview
     id="base"
     pagecolor="#ffffff"
     bordercolor="#666666"
     borderopacity="1.0"
     inkscape:pageopacity="0.0"
     inkscape:pageshadow="2"
     inkscape:zoom="1.979899"
     inkscape:cx="137.63603"
     inkscape:cy="105.47543"
     inkscape:document-units="px"
     inkscape:current-layer="layer1"
     showgrid="true"
     inkscape:window-width="1280"
     inkscape:window-height="738"
     inkscape:window-x="1432"
     inkscape:window-y="92"
     inkscape:window-maximized="1"
     fit-margin-top="5"
     fit-margin-left="5"
     fit-margin-right="5"
     fit-margin-bottom="5">
    <inkscape:grid
       type="xygrid"
       id="grid2985"
       empspacing="5"
       visible="true"
       enabled="true"
       snapvisiblegridlinesonly="true" />
  </sodipodi:namedview>
  <metadata
     id="metadata7">
    <rdf:RDF>
      <cc:Work
         rdf:about="">
        <dc:format>image/svg+xml</dc:format>
        <dc:type
           rdf:resource="http://purl.org/dc/dcmitype/StillImage" />
        <dc:title></dc:title>
      </cc:Work>
    </rdf:RDF>
  </metadata>
  <g
     inkscape:label="Layer 1"
     inkscape:groupmode="layer"
     id="layer1"
     transform="translate(-55.322266,-546.86218)">
    <rect
       style="fill:#0000ff;stroke:none"
       id="temp_level"
       width="25"
       height="60"
       x="100"
       y="-722.36218"
       transform="scale(1,-1)" />
    <path
       style="fill:none;stroke:#4d4d4d;stroke-width:1px;stroke-linecap:butt;stroke-linejoin:miter;stroke-opacity:1"
       d="m 85,722.36218 0,-150 m 0,150 -6,0 m 6,-5 -4,0 m 4,-5 -4,0 m 4,-5 -4,0 m 4,-5 -4,0 m 4,-5 -4,0 m 4,-5 -4,0 m 4,-5 -4,0 m 4,-5 -4,0 m 4,-5 -4,0 m 4,-5 -6,0 m 6,-5 -4,0 m 4,-5 -4,0 m 4,-5 -4,0 m 4,-5 -4,0 m 4,-5 -4,0 m 4,-5 -4,0 m 4,-5 -4,0 m 4,-5 -4,0 m 4,-5 -4,0 m 4,-5 -6,0 m 6,-5 -4,0 m 4,-5 -4,0 m 4,-5 -4,0 m 4,-5 -4,0 m 4,-5 -4,0 m 4,-5 -4,0 m 4,-5 -4,0 m 4,-5 -4,0 m 4,-5 -4,0 m 4,-5 -6,0"
       id="path3005"
       inkscape:connector-curvature="0"
       inkscape:path-effect="#path-effect3007"
       inkscape:original-d="m 85,722.36218 0,-150" />
    <text
       xml:space="preserve"
       style="font-size:40px;font-style:normal;font-weight:normal;line-height:125%;letter-spacing:0px;word-spacing:0px;fill:#4d4d4d;fill-opacity:1;stroke:none;font-family:Sans"
       x="66.123047"
       y="722.36218"
       id="text3009"
       sodipodi:linespacing="125%"><tspan
         sodipodi:role="line"
         id="tspan3011"
         x="66.123047"
         y="722.36218"
         style="font-size:11px;fill:#4d4d4d;stroke:none">0</tspan></text>
    <text
       xml:space="preserve"
       style="font-size:40px;font-style:normal;font-weight:normal;line-height:125%;letter-spacing:0px;word-spacing:0px;fill:#4d4d4d;fill-opacity:1;stroke:none;font-family:Sans"
       x="60"
       y="672.36218"
       id="text3009-1"
       sodipodi:linespacing="125%"><tspan
         sodipodi:role="line"
         id="tspan3011-7"
         x="60"
         y="672.36218"
         style="font-size:11px;fill:#4d4d4d;stroke:none">10</tspan></text>
    <text
       xml:space="preserve"
       style="font-size:40px;font-style:normal;font-weight:normal;line-height:125%;letter-spacing:0px;word-spacing:0px;fill:#4d4d4d;fill-opacity:1;stroke:none;font-family:Sans"
       x="60"
       y="622.36218"
       id="text3009-1-8"
       sodipodi:linespacing="125%"><tspan
         sodipodi:role="line"
         id="tspan3011-7-8"
         x="60"
         y="622.36218"
         style="font-size:11px;fill:#4d4d4d;stroke:none">20</tspan></text>
    <text
       xml:space="preserve"
       style="font-size:40px;font-style:normal;font-weight:normal;line-height:125%;letter-spacing:0px;word-spacing:0px;fill:#4d4d4d;fill-opacity:1;stroke:none;font-family:Sans"
       x="60"
       y="572.36218"
       id="text3009-1-8-2"
       sodipodi:linespacing="125%"><tspan
         sodipodi:role="line"
         id="tspan3011-7-8-4"
         x="60"
         y="572.36218"
         style="font-size:11px;fill:#4d4d4d;stroke:none">30</tspan></text>
    <path
       style="fill:none;stroke:#000000;stroke-width:1;stroke-miterlimit:4;stroke-dasharray:none"
       d="m 100,722.36218 0,-156 c 0,-7.756 5.575,-14 12.5,-14 l 0,0 c 6.925,0 12.5,6.244 12.5,14 l 0,156.00001"
       id="path2996"
       inkscape:connector-curvature="0" />
    <path
       style="fill:#666666;stroke:#000000;stroke-width:1;stroke-miterlimit:4;stroke-dasharray:none"
       d="m 100,722.36218 0,16 c 0,7.756 5.575,14 12.5,14 6.925,0 12.5,-6.244 12.5,-14 l 0,-16 -25,0 z"
       id="rect2991"
       inkscape:connector-curvature="0" />
    <text
       xml:space="preserve"
       style="font-size:40px;font-style:normal;font-weight:normal;line-height:125%;letter-spacing:0px;word-spacing:0px;fill:#000000;fill-opacity:1;stroke:none;font-family:Sans"
       x="160.61424"
       y="651.3316"
       id="text3105"
       sodipodi:linespacing="125%"><tspan
         sodipodi:role="line"
         id="tspan3107"
         x="160.61424"
         y="651.3316"
         style="font-size:18px">Actual Temperature</tspan><tspan
         sodipodi:role="line"
         x="160.61424"
         y="673.8316"
         style="font-size:18px"
         id="tspan3111" /><tspan
         sodipodi:role="line"
         x="160.61424"
         y="741.45258"
         style="font-size:72px;fill:#0000ff"
         id="temp_value">10°C</tspan></text>
  </g>
</svg>
